<svg width="21" height="21" viewBox="0 0 21 21" fill="none" xmlns="http://www.w3.org/2000/svg">
<path d="M18.1375 10.4H9.9996V11.6H18.1375L16.127 13.7L16.9887 14.6L19.9566 11.5C20.0498 11.3702 20.1002 11.2123 20.1002 11.05C20.1002 10.8877 20.0498 10.7298 19.9566 10.6L16.9887 7.5L16.127 8.4L18.1375 10.4Z" fill="black"/>
<path d="M8.75496 20.4V14.2C8.7439 14.0447 8.67983 13.8987 8.57441 13.7886C8.46898 13.6785 8.32921 13.6116 8.18052 13.6H3.96794C3.97288 13.9167 4.0955 14.2189 4.3099 14.4428C4.5243 14.6668 4.81367 14.7949 5.11683 14.8H7.51034V19.8H3.96794C3.74127 19.8149 3.51403 19.7825 3.29944 19.7048C3.08484 19.6271 2.88717 19.5057 2.71791 19.3475C2.54865 19.1893 2.41118 18.9976 2.3135 18.7834C2.21581 18.5693 2.15985 18.337 2.14888 18.1V4.10001C2.14102 3.6373 2.30699 3.18977 2.61122 2.85331C2.91544 2.51686 3.33373 2.31824 3.77646 2.30001H7.51034V7.30001H5.21257C4.90941 7.30516 4.62004 7.43324 4.40564 7.65718C4.19124 7.88112 4.06862 8.18336 4.06369 8.50001H8.27626C8.42495 8.48846 8.56472 8.42154 8.67015 8.31142C8.77557 8.2013 8.83964 8.05531 8.8507 7.90001V1.60001C8.80504 1.44387 8.71777 1.30453 8.59909 1.19828C8.48042 1.09204 8.33523 1.02326 8.18052 1.00001H3.96794C3.59071 0.986659 3.21465 1.0511 2.86128 1.18965C2.5079 1.3282 2.18413 1.53814 1.90849 1.80748C1.63285 2.07681 1.41073 2.40025 1.25485 2.7593C1.09896 3.11835 1.01236 3.50598 0.999994 3.90001V17.8C0.97225 18.1977 1.02358 18.597 1.15076 18.9729C1.27794 19.3489 1.47821 19.6932 1.73899 19.9844C1.99976 20.2756 2.3154 20.5072 2.66604 20.6648C3.01668 20.8224 3.39475 20.9024 3.77646 20.9H8.18052C8.25088 20.915 8.32357 20.9133 8.39321 20.895C8.46285 20.8767 8.52765 20.8423 8.58282 20.7942C8.63798 20.7462 8.6821 20.6859 8.7119 20.6176C8.7417 20.5494 8.75642 20.475 8.75496 20.4Z" fill="black"/>
</svg>
